<svg xmlns="http://www.w3.org/2000/svg" y="" viewBox="0 0 100 100"><path fill="#000000" d="M92.484,35.134c-0.502-3.491-1.07-7.447-1.628-11.767c-0.2-1.548-1.202-2.842-2.589-3.366L64.977,10.91   c-1.332-0.5-2.881-0.213-3.949,0.717c-0.571,0.494-0.984,1.137-1.221,1.847c-3.052-0.949-6.331-1.461-9.807-1.461   c-3.475,0-6.755,0.512-9.806,1.461c-0.236-0.71-0.647-1.352-1.213-1.84c-1.081-0.941-2.569-1.247-3.986-0.713l-23.235,9.071   c-1.414,0.534-2.416,1.828-2.615,3.377c-0.558,4.317-1.126,8.272-1.628,11.762C5.565,48.708,4.585,55.522,7.411,58.857   c1.369,1.615,2.913,1.856,3.711,1.856c0,0,0,0,0,0c0.119,0,0.224-0.005,0.319-0.013l0.188-0.02   c0.878-0.115,1.708-0.535,2.337-1.184c1.673-1.728,3.23-3.431,4.701-5.109C26.339,79.131,35.578,89.342,50,89.342   c14.419,0,23.657-10.211,31.331-34.956c1.471,1.679,3.027,3.382,4.7,5.109c0.627,0.649,1.457,1.07,2.352,1.188l0.181,0.02   c0.09,0.007,0.195,0.012,0.315,0.012c0.798,0,2.341-0.241,3.711-1.856C95.415,55.522,94.436,48.709,92.484,35.134z M11.013,55.527   c-1.204-2.031,0.031-10.623,1.336-19.702c0.489-3.401,1.041-7.242,1.587-11.443l21.342-8.332   C34.198,20.578,29.329,36.395,11.013,55.527z M50,84.459c-9.11,0-18.747-4.234-27.581-34.549   c11.137-13.926,15.522-25.467,17.13-31.059c3.156-1.274,6.66-1.956,10.451-1.956s7.296,0.682,10.452,1.957   c1.609,5.592,5.996,17.136,17.128,31.057C68.743,80.226,59.107,84.459,50,84.459z M88.987,55.527   C70.63,36.351,65.78,20.503,64.719,16.05l21.347,8.333c0.546,4.202,1.098,8.044,1.587,11.446   C88.957,44.907,90.191,53.497,88.987,55.527z"/><path fill="#000000" d="M36.225,49.361c-1.348,0-2.441,1.093-2.441,2.441v5.951c0,1.348,1.093,2.441,2.441,2.441   s2.441-1.094,2.441-2.441v-5.951C38.666,50.454,37.573,49.361,36.225,49.361z"/><path fill="#000000" d="M63.378,60.194c1.348,0,2.441-1.094,2.441-2.441v-5.951c0-1.348-1.094-2.441-2.441-2.441   s-2.441,1.093-2.441,2.441v5.951C60.937,59.101,62.03,60.194,63.378,60.194z"/><path fill="#000000" d="M56.266,69.824H43.734c-1.348,0-2.441,1.094-2.441,2.441s1.093,2.441,2.441,2.441h3.825v3.51   c0,1.348,1.093,2.441,2.441,2.441c1.348,0,2.441-1.094,2.441-2.441v-3.51h3.824c1.348,0,2.441-1.094,2.441-2.441   S57.613,69.824,56.266,69.824z"/></svg>